<?xml version="1.0" standalone="no"?><!DOCTYPE svg PUBLIC "-//W3C//DTD SVG 1.1//EN" "http://www.w3.org/Graphics/SVG/1.1/DTD/svg11.dtd"><svg width="100%" height="100%" version="1.1" xmlns="http://www.w3.org/2000/svg">
<defs>	<linearGradient id="orange_red" x1="0%" y1="0%" x2="100%" y2="0%">		<stop offset="0%" style="stop-color:rgb(255,153,0); stop-opacity:1"/>		<stop offset="40%" style="stop-color:white; stop-opacity:1"/>		<stop offset="45%" style="stop-color:black; stop-opacity:1"/>		<stop offset="50%" style="stop-color:white; stop-opacity:1"/>		<stop offset="90%" style="stop-color:rgb(255,0,0); stop-opacity:1"/>	</linearGradient></defs>
<defs>	<linearGradient id="orange_red2" x1="0%" y1="0%" x2="100%" y2="100%">		<stop offset="0%" style="stop-color:rgb(255,153,0); stop-opacity:1"/>		<stop offset="40%" style="stop-color:white; stop-opacity:1"/>		<stop offset="45%" style="stop-color:black; stop-opacity:1"/>		<stop offset="50%" style="stop-color:white; stop-opacity:1"/>		<stop offset="90%" style="stop-color:rgb(255,0,0); stop-opacity:1"/>	</linearGradient></defs>
<defs>	<linearGradient id="orange_red3" x1="30%" y1="30%" x2="70%" y2="70%">		<stop offset="0%" style="stop-color:rgb(255,153,0); stop-opacity:1"/>		<stop offset="40%" style="stop-color:white; stop-opacity:1"/>		<stop offset="45%" style="stop-color:black; stop-opacity:1"/>		<stop offset="50%" style="stop-color:white; stop-opacity:1"/>		<stop offset="90%" style="stop-color:rgb(255,0,0); stop-opacity:1"/>	</linearGradient></defs>
<defs>	<linearGradient id="orange_red4" x1="0%" y1="10%" x2="100%" y2="80%">		<stop offset="0%" style="stop-color:rgb(255,153,0); stop-opacity:1"/>		<stop offset="40%" style="stop-color:white; stop-opacity:1"/>		<stop offset="45%" style="stop-color:black; stop-opacity:1"/>		<stop offset="50%" style="stop-color:white; stop-opacity:1"/>		<stop offset="90%" style="stop-color:rgb(255,0,0); stop-opacity:1"/>	</linearGradient></defs><g fill="url(#orange_red)">
	<polygon points="10,45 50,10 100,55 50, 100"/></g><g fill="url(#orange_red)">
	<polygon points="110,30 150,10 200,40 150,70"/></g><g fill="url(#orange_red)">
	<polygon points="210,20 250,10 300,20 250,30"/></g>
<g fill="url(#orange_red2)">
	<polygon points="10,145 50,110 100,155 50,200"/></g><g fill="url(#orange_red2)">
	<polygon points="110,130 150,110 200,140 150,170"/>
</g><g fill="url(#orange_red2)">
	<polygon points="210,120 250,110 300,120 250,130"/></g>
<g fill="url(#orange_red3)">
	<polygon points="10,245 50,210 100,255 50,300"/></g><g fill="url(#orange_red3)">
	<polygon points="110,230 150,210 200,240 150,270"/></g><g fill="url(#orange_red3)">
	<polygon points="210,220 250,210 300,220 250,230"/></g>
<g fill="url(#orange_red4)">
	<polygon points="10,345 50,310 100,355 50,400"/></g><g fill="url(#orange_red4)">
	<polygon points="110,330 150,310 200,340 150,370"/></g><g fill="url(#orange_red4)">
	<polygon points="210,320 250,310 300,320 250,330"/></g>
</svg>